<?xml version="1.0" encoding="utf-8"?>
<!-- Generator: Adobe Illustrator 26.0.3, SVG Export Plug-In . SVG Version: 6.00 Build 0)  -->
<svg version="1.1" id="Layer_1" xmlns="http://www.w3.org/2000/svg" xmlns:xlink="http://www.w3.org/1999/xlink" x="0px" y="0px"
	 viewBox="0 0 492.9 542.5" style="enable-background:new 0 0 492.9 542.5;" xml:space="preserve">
<style type="text/css">
	.st0{fill:#F58D38;}
	.st1{fill:#008F7E;}
	.st2{enable-background:new    ;}
</style>
<g id="qliaEB.tif">
	<g>
		<path class="st0" d="M283,172.7c3.5-3.9,7-7.7,10.7-11.3c15.3-14.9,32.9-25.9,53.6-31.5c14.5-3.9,29.3-4.9,44.3-3.8
			c11.9,0.9,23.4,3.2,34.4,7.8c24.1,10.1,39.6,28.1,48.1,52.4c4.6,13,6.6,26.6,7.2,40.3c0.3,7.5,0.3,15,0.3,22.5
			c0,58.9,0,117.8,0,176.8c0,3.2,0,3.2-3.2,3.2c-26.2,0-52.3,0-78.5,0.1c-2.3,0-2.9-0.7-2.9-2.9c0.1-53.8,0.1-107.7,0-161.5
			c0-8.1-0.5-16.1-2.3-24c-2.8-12.2-8-22.9-18.6-30.3c-5.9-4.1-12.6-6.4-19.7-7.3c-9.7-1.3-19.3-0.7-28.5,2.6
			c-14.2,5.1-22.8,15.6-27.5,29.6c-2.9,8.5-4,17.3-4,26.3c-0.1,54.8-0.1,109.7,0,164.5c0,2.5-0.6,3.2-3.1,3.1
			c-26.2-0.1-52.5-0.1-78.7,0c-2.1,0-2.8-0.5-2.8-2.7c0.1-99.1,0.1-198.2,0-297.4c0-1.9,0.1-2.7,2.5-2.4c29.9,4,53.2,18.1,68,44.9
			C282.4,171.9,282.7,172.2,283,172.7z"/>
		<path class="st1" d="M97.3,190.1c3.8-7.6,7.6-15.2,12.2-22.3c10.9-16.9,25-30,44.2-36.9c12-4.3,24.4-5.6,37.1-5.3
			c1.9,0,1.7,1,1.7,2.2c0,12.1,0,24.1,0,36.2c0,15.8,0,31.6,0,47.4c0,2-0.5,2.7-2.6,2.6c-13.1-0.3-25.9,1.3-38.3,5.8
			c-22.6,8.2-37.3,24.3-45.8,46.4c-6.3,16.4-8.4,33.5-8.5,50.9c-0.1,36.4-0.1,72.7,0,109.1c0,2.3-0.6,2.8-2.9,2.8
			c-26.2-0.1-52.5-0.1-78.7,0c-2.3,0-3-0.4-3-2.9c0.1-97.4,0.1-194.9,0-292.3c0-2.3,0.6-2.7,2.8-2.7c26.4,0.1,52.8,0.1,79.2,0
			c2.3,0,2.7,0.7,2.7,2.8C97.3,152.6,97.3,171.3,97.3,190.1z"/>
		<path class="st1" d="M54.9,11.3c25.6,0,46.3,20.8,46.3,46.4c-0.1,25.5-21,46.1-46.6,46.1C29.2,103.7,8.4,82.9,8.4,57.4
			C8.5,31.9,29.3,11.2,54.9,11.3z"/>
		<path class="st0" d="M439.2,11.3c25.6,0,46.4,20.7,46.4,46.2c0,25.4-20.8,46.2-46.2,46.3c-25.8,0-46.6-20.7-46.6-46.4
			C392.9,32,413.7,11.3,439.2,11.3z"/>
		<path class="st0" d="M254.2,11.3c25.7,0,46.2,20.7,46.1,46.5c-0.1,25.4-20.8,46-46.4,46S207.7,83,207.8,57.3
			C207.8,31.7,228.5,11.2,254.2,11.3z"/>
	</g>
</g>
<g class="st2">
	<path d="M15.8,486.4c0-1.4-0.1-2.6-0.2-3.7h4.5c0.1,0.9,0.2,1.8,0.2,2.9c0,1.1,0.1,1.9,0.1,2.6h0.1c0.9-1.9,2.3-3.4,4.1-4.6
		c1.8-1.2,3.9-1.8,6.2-1.8c0.6,0,1.1,0,1.6,0.1c0.5,0,1,0.1,1.5,0.3l-0.6,4.5c-0.3-0.1-0.7-0.2-1.4-0.3c-0.6-0.1-1.3-0.1-1.9-0.1
		c-1.2,0-2.4,0.2-3.6,0.7c-1.2,0.5-2.2,1.2-3,2.2c-0.9,1-1.5,2.2-2.1,3.8c-0.5,1.5-0.8,3.4-0.8,5.5V515h-4.7v-25.2
		C15.9,488.9,15.9,487.8,15.8,486.4z"/>
	<path d="M68.9,497.9c0,0.3,0,0.7,0,1c0,0.4,0,0.8-0.1,1.2H42c0,1.6,0.4,3.1,1,4.6c0.6,1.4,1.4,2.7,2.5,3.7c1.1,1.1,2.3,1.9,3.7,2.5
		c1.4,0.6,3,0.9,4.6,0.9c2.4,0,4.5-0.6,6.3-1.7c1.8-1.1,3.1-2.4,4-3.9l3.5,2.8c-1.9,2.4-4.1,4.2-6.4,5.2c-2.3,1.1-4.8,1.6-7.5,1.6
		c-2.4,0-4.6-0.4-6.7-1.3c-2-0.9-3.8-2-5.3-3.6c-1.5-1.5-2.6-3.3-3.5-5.4c-0.9-2.1-1.3-4.3-1.3-6.8c0-2.4,0.4-4.7,1.2-6.8
		c0.8-2.1,2-3.9,3.5-5.4c1.5-1.5,3.2-2.7,5.2-3.6c2-0.9,4.1-1.3,6.4-1.3c2.5,0,4.8,0.4,6.7,1.3c1.9,0.9,3.5,2,4.8,3.5
		c1.3,1.4,2.3,3.1,2.9,5.1C68.5,493.6,68.9,495.7,68.9,497.9z M64.1,496.4c-0.1-3-1.1-5.6-2.9-7.6c-1.8-2-4.4-3-7.8-3
		c-1.6,0-3,0.3-4.3,0.9c-1.3,0.6-2.5,1.4-3.5,2.3c-1,1-1.8,2.1-2.4,3.4c-0.6,1.3-0.9,2.6-1,4H64.1z"/>
	<path d="M96.1,490.4c-0.7-1.3-1.7-2.4-3.1-3.3c-1.4-0.9-3-1.3-4.8-1.3c-0.8,0-1.7,0.1-2.5,0.3c-0.8,0.2-1.6,0.5-2.2,0.9
		c-0.6,0.4-1.2,0.9-1.6,1.6c-0.4,0.6-0.6,1.4-0.6,2.3c0,1.5,0.6,2.7,1.9,3.5c1.2,0.8,3.2,1.5,5.9,2c3.8,0.8,6.6,1.9,8.5,3.4
		c1.8,1.5,2.7,3.5,2.7,6c0,1.8-0.4,3.4-1.1,4.7c-0.7,1.3-1.6,2.3-2.8,3.1c-1.2,0.8-2.4,1.4-3.9,1.7c-1.4,0.3-2.9,0.5-4.4,0.5
		c-2.4,0-4.8-0.5-7.1-1.5c-2.3-1-4.2-2.6-5.7-4.8l3.7-2.8c0.8,1.4,2,2.6,3.7,3.6c1.6,1,3.4,1.4,5.3,1.4c1,0,2-0.1,2.9-0.3
		c0.9-0.2,1.7-0.5,2.4-1c0.7-0.5,1.2-1,1.7-1.8c0.4-0.7,0.6-1.6,0.6-2.7c0-1.7-0.8-3-2.4-3.8c-1.6-0.9-4-1.6-7.1-2.4
		c-1-0.2-2-0.5-3.1-0.9c-1.1-0.3-2.1-0.9-3-1.5c-0.9-0.7-1.7-1.5-2.3-2.5c-0.6-1-0.9-2.3-0.9-3.8c0-1.7,0.3-3.1,1-4.2
		c0.6-1.2,1.5-2.1,2.6-2.9c1.1-0.8,2.3-1.3,3.7-1.7c1.4-0.4,2.8-0.6,4.3-0.6c2.3,0,4.4,0.5,6.6,1.5c2.1,1,3.7,2.4,4.8,4.3
		L96.1,490.4z"/>
	<path d="M139,497.9c0,0.3,0,0.7,0,1c0,0.4,0,0.8-0.1,1.2h-26.8c0,1.6,0.4,3.1,1,4.6c0.6,1.4,1.4,2.7,2.5,3.7
		c1.1,1.1,2.3,1.9,3.7,2.5c1.4,0.6,3,0.9,4.6,0.9c2.4,0,4.5-0.6,6.3-1.7c1.8-1.1,3.1-2.4,4-3.9l3.5,2.8c-1.9,2.4-4.1,4.2-6.4,5.2
		c-2.3,1.1-4.8,1.6-7.5,1.6c-2.4,0-4.6-0.4-6.7-1.3c-2-0.9-3.8-2-5.3-3.6c-1.5-1.5-2.6-3.3-3.5-5.4c-0.9-2.1-1.3-4.3-1.3-6.8
		c0-2.4,0.4-4.7,1.2-6.8c0.8-2.1,2-3.9,3.5-5.4c1.5-1.5,3.2-2.7,5.2-3.6c2-0.9,4.1-1.3,6.4-1.3c2.5,0,4.8,0.4,6.7,1.3
		c1.9,0.9,3.5,2,4.8,3.5c1.3,1.4,2.3,3.1,2.9,5.1C138.6,493.6,139,495.7,139,497.9z M134.2,496.4c-0.1-3-1.1-5.6-2.9-7.6
		c-1.8-2-4.4-3-7.8-3c-1.6,0-3,0.3-4.3,0.9c-1.3,0.6-2.5,1.4-3.5,2.3c-1,1-1.8,2.1-2.4,3.4c-0.6,1.3-0.9,2.6-1,4H134.2z"/>
	<path d="M169,494.1c0-2.8-0.7-4.9-2.2-6.2c-1.5-1.4-3.6-2.1-6.4-2.1c-1.9,0-3.7,0.3-5.4,1c-1.7,0.7-3.1,1.6-4.2,2.8l-2.6-3.1
		c1.3-1.3,3.1-2.4,5.3-3.3c2.2-0.9,4.7-1.3,7.4-1.3c1.7,0,3.4,0.2,4.9,0.7c1.5,0.5,2.9,1.2,4,2.2c1.1,1,2,2.2,2.7,3.7
		c0.6,1.5,1,3.2,1,5.2v14.1c0,1.2,0,2.5,0.1,3.9c0.1,1.3,0.2,2.5,0.4,3.4h-4.2c-0.1-0.8-0.3-1.6-0.3-2.6c-0.1-0.9-0.1-1.8-0.1-2.7
		h-0.1c-1.5,2.2-3.1,3.7-5,4.7c-1.9,0.9-4.1,1.4-6.7,1.4c-1.2,0-2.5-0.2-3.8-0.5c-1.3-0.3-2.5-0.9-3.6-1.7c-1.1-0.8-2-1.8-2.7-3
		c-0.7-1.2-1.1-2.8-1.1-4.6c0-2.5,0.6-4.5,1.9-5.9c1.3-1.5,3-2.5,5.1-3.3c2.1-0.7,4.5-1.2,7.3-1.4c2.7-0.2,5.6-0.3,8.5-0.3V494.1z
		 M167.6,498.9c-1.9,0-3.9,0.1-5.8,0.2c-2,0.2-3.7,0.5-5.3,1s-2.9,1.2-3.9,2.1c-1,0.9-1.5,2.1-1.5,3.7c0,1.2,0.2,2.1,0.7,2.9
		c0.4,0.8,1,1.4,1.8,1.9c0.7,0.5,1.6,0.8,2.4,1c0.9,0.2,1.8,0.3,2.7,0.3c1.7,0,3.1-0.3,4.4-0.9c1.3-0.6,2.4-1.4,3.2-2.3
		c0.9-1,1.5-2.1,2-3.4c0.5-1.3,0.7-2.6,0.7-4.1v-2.4H167.6z"/>
	<path d="M185.4,486.4c0-1.4-0.1-2.6-0.2-3.7h4.5c0.1,0.9,0.2,1.8,0.2,2.9c0,1.1,0.1,1.9,0.1,2.6h0.1c0.9-1.9,2.3-3.4,4.1-4.6
		c1.8-1.2,3.9-1.8,6.2-1.8c0.6,0,1.1,0,1.6,0.1c0.5,0,1,0.1,1.5,0.3l-0.6,4.5c-0.3-0.1-0.7-0.2-1.4-0.3c-0.6-0.1-1.3-0.1-1.9-0.1
		c-1.2,0-2.4,0.2-3.6,0.7c-1.2,0.5-2.2,1.2-3,2.2c-0.9,1-1.5,2.2-2.1,3.8c-0.5,1.5-0.8,3.4-0.8,5.5V515h-4.7v-25.2
		C185.5,488.9,185.5,487.8,185.4,486.4z"/>
	<path d="M232.3,490.1c-0.8-1.2-1.9-2.3-3.4-3.1c-1.5-0.8-3.1-1.2-4.9-1.2c-1.9,0-3.6,0.3-5.1,1c-1.5,0.7-2.8,1.6-3.9,2.8
		c-1.1,1.2-1.9,2.6-2.5,4.1c-0.6,1.6-0.9,3.3-0.9,5.1c0,1.8,0.3,3.5,0.9,5.1c0.6,1.6,1.4,2.9,2.4,4.1c1.1,1.2,2.3,2.1,3.9,2.8
		c1.5,0.7,3.2,1,5.1,1c2.1,0,3.8-0.4,5.2-1.2c1.4-0.8,2.6-1.8,3.5-3l3.5,2.6c-1.4,1.7-3.1,3.1-5.1,4.1c-2,1-4.4,1.5-7.2,1.5
		c-2.6,0-5-0.4-7.1-1.3c-2.1-0.9-3.9-2-5.4-3.6c-1.5-1.5-2.7-3.3-3.5-5.4c-0.8-2.1-1.2-4.3-1.2-6.8c0-2.4,0.4-4.7,1.2-6.8
		c0.8-2.1,2-3.9,3.5-5.4c1.5-1.5,3.3-2.7,5.4-3.6c2.1-0.9,4.5-1.3,7.1-1.3c2.2,0,4.4,0.5,6.6,1.4c2.2,0.9,4,2.3,5.4,4.2L232.3,490.1
		z"/>
	<path d="M248.5,488c0.9-1.9,2.3-3.4,4.3-4.5c2-1.1,4.2-1.7,6.5-1.7c4.1,0,7.2,1.2,9.2,3.7c2,2.4,3.1,5.7,3.1,9.7V515H267v-17.9
		c0-1.7-0.1-3.2-0.4-4.6c-0.3-1.4-0.7-2.6-1.4-3.6c-0.7-1-1.6-1.8-2.7-2.3c-1.1-0.6-2.5-0.8-4.2-0.8c-1.2,0-2.4,0.3-3.6,0.8
		c-1.2,0.5-2.2,1.3-3.1,2.3c-0.9,1-1.7,2.3-2.2,3.9c-0.6,1.6-0.8,3.5-0.8,5.6V515h-4.7v-52.2h4.7V488H248.5z"/>
</g>
<g class="st2">
	<path d="M328.8,515v-18.8c0-1-0.1-1.9-0.2-2.8s-0.4-1.7-0.8-2.3c-0.4-0.6-0.9-1.2-1.5-1.6c-0.6-0.4-1.4-0.6-2.5-0.6
		c-1,0-1.8,0.2-2.5,0.6c-0.7,0.4-1.3,1-1.8,1.7c-0.5,0.7-0.8,1.5-1.1,2.4c-0.2,0.9-0.3,1.8-0.3,2.8V515h-11.3v-19.6
		c0-2-0.4-3.5-1.2-4.7c-0.8-1.1-2-1.7-3.7-1.7c-1.8,0-3.2,0.7-4.2,2.1c-1,1.4-1.5,3.2-1.5,5.2V515h-11.4v-34.4h11v4.8h0.1
		c0.4-0.7,0.9-1.4,1.6-2.1c0.6-0.7,1.4-1.3,2.2-1.8c0.9-0.5,1.9-1,2.9-1.3c1.1-0.3,2.3-0.5,3.6-0.5c2.5,0,4.6,0.5,6.3,1.5
		c1.7,1,3.1,2.5,4,4.3c1.1-1.8,2.6-3.2,4.4-4.3c1.8-1.1,4-1.6,6.6-1.6c2.3,0,4.3,0.4,5.9,1.3c1.6,0.9,2.9,2,3.8,3.3
		c1,1.4,1.7,2.9,2.1,4.6c0.4,1.7,0.7,3.3,0.7,4.9V515H328.8z"/>
	<path d="M348.2,485.3c2-1.9,4.4-3.4,7.1-4.3c2.7-1,5.4-1.4,8.2-1.4c2.9,0,5.3,0.4,7.3,1.1c2,0.7,3.6,1.8,4.9,3.3
		c1.2,1.5,2.1,3.4,2.7,5.7c0.6,2.3,0.9,5,0.9,8.1V515h-10.3v-3.7h-0.2c-0.9,1.4-2.2,2.5-4,3.3c-1.8,0.8-3.7,1.2-5.8,1.2
		c-1.4,0-2.8-0.2-4.3-0.6c-1.5-0.4-2.8-1-4-1.8c-1.2-0.8-2.2-1.9-3-3.3c-0.8-1.4-1.2-3.1-1.2-5.1c0-2.5,0.7-4.5,2-6
		c1.4-1.5,3.1-2.7,5.2-3.5s4.5-1.4,7.1-1.7c2.6-0.3,5.2-0.4,7.7-0.4v-0.6c0-1.7-0.6-3-1.8-3.8c-1.2-0.8-2.7-1.2-4.4-1.2
		c-1.6,0-3.2,0.3-4.7,1c-1.5,0.7-2.8,1.5-3.8,2.5L348.2,485.3z M368.9,500h-1.4c-1.2,0-2.5,0.1-3.8,0.2c-1.3,0.1-2.4,0.3-3.4,0.7
		c-1,0.3-1.8,0.8-2.4,1.4c-0.6,0.6-1,1.4-1,2.4c0,0.6,0.1,1.2,0.4,1.7c0.3,0.5,0.7,0.8,1.1,1.1c0.5,0.3,1,0.5,1.6,0.6
		c0.6,0.1,1.2,0.2,1.7,0.2c2.3,0,4.1-0.6,5.3-1.9c1.2-1.3,1.8-3,1.8-5.1V500z"/>
	<path d="M399.3,489.1v13.2c0,1.6,0.3,2.8,0.9,3.6s1.7,1.2,3.3,1.2c0.6,0,1.1,0,1.8-0.1c0.6-0.1,1.1-0.2,1.6-0.4l0.1,8.3
		c-0.8,0.3-1.8,0.5-3,0.7s-2.4,0.3-3.6,0.3c-2.3,0-4.2-0.3-5.8-0.9c-1.6-0.6-2.8-1.4-3.8-2.5c-0.9-1.1-1.6-2.4-2-3.9
		c-0.4-1.5-0.6-3.2-0.6-5v-14.5h-5.5v-8.4h5.5v-9h11.1v9h8.1v8.4H399.3z"/>
	<path d="M436.4,491.7c-0.6-0.8-1.5-1.5-2.6-2c-1.1-0.5-2.2-0.8-3.4-0.8c-1.2,0-2.3,0.2-3.2,0.7c-1,0.5-1.8,1.1-2.5,1.9
		c-0.7,0.8-1.2,1.7-1.6,2.8c-0.4,1.1-0.6,2.2-0.6,3.4s0.2,2.3,0.6,3.4c0.4,1.1,0.9,2,1.6,2.8c0.7,0.8,1.6,1.4,2.6,1.9
		c1,0.5,2.1,0.7,3.3,0.7c1.1,0,2.3-0.2,3.4-0.7c1.1-0.4,2-1.1,2.7-1.9l6.3,7.7c-1.4,1.4-3.3,2.5-5.5,3.2c-2.3,0.8-4.6,1.2-7.2,1.2
		c-2.7,0-5.2-0.4-7.6-1.2s-4.4-2-6.1-3.6c-1.7-1.6-3.1-3.5-4.1-5.8c-1-2.3-1.5-4.8-1.5-7.7c0-2.8,0.5-5.3,1.5-7.6
		c1-2.3,2.4-4.2,4.1-5.8c1.7-1.6,3.8-2.8,6.1-3.7c2.4-0.9,4.9-1.3,7.5-1.3c1.2,0,2.5,0.1,3.7,0.3c1.2,0.2,2.4,0.5,3.5,0.9
		c1.1,0.4,2.2,0.9,3.1,1.4c0.9,0.6,1.8,1.2,2.4,1.9L436.4,491.7z"/>
	<path d="M470,515v-18.6c0-1-0.1-1.9-0.2-2.8c-0.1-0.9-0.4-1.6-0.8-2.3s-0.9-1.2-1.6-1.6s-1.5-0.6-2.5-0.6c-2,0-3.5,0.7-4.6,2.1
		c-1.1,1.4-1.6,3.1-1.6,5.2V515h-11.3v-52.2h11.3V485h0.1c0.8-1.4,2-2.6,3.7-3.7c1.7-1.1,3.7-1.6,6.1-1.6c2.3,0,4.3,0.4,5.9,1.2
		c1.6,0.8,2.9,1.9,3.9,3.2c1,1.3,1.7,2.8,2.1,4.5c0.4,1.7,0.7,3.4,0.7,5.1V515H470z"/>
</g>
</svg>
